<?xml version="1.0" encoding="utf-8"?>
<!-- Generator: Adobe Illustrator 26.3.1, SVG Export Plug-In . SVG Version: 6.00 Build 0)  -->
<svg version="1.1" id="Layer_1" xmlns="http://www.w3.org/2000/svg" xmlns:xlink="http://www.w3.org/1999/xlink" x="0px" y="0px"
	 viewBox="0 0 114.2 39.7" style="enable-background:new 0 0 114.2 39.7;" xml:space="preserve">
<style type="text/css">
	.st0{fill:#FF0000;}
</style>
<g>
	<path class="st0" d="M108.7,24.4H79.2v-3.9c0-0.7,0.3-1.4,0.9-2L94,5.2l13.8,13.3c0.6,0.6,0.9,1.3,0.9,2
		C108.7,20.5,108.7,24.4,108.7,24.4z M111.7,14.5L96.6,0H91L76,14.5c-1.7,1.6-2.6,3.9-2.6,6v19.2h5.7V30h29.5v9.6h5.7V20.5
		C114.2,18.3,113.4,16,111.7,14.5"/>
	<path class="st0" d="M73.1,0h-5.7c0,9.5-7.5,17-17,17h-5.1V0h-5.7v39.7h5.7v-17h5.1c1,0,2-0.1,3-0.2l8.2,17.2H68L59,21
		C67.2,17.7,73.1,9.9,73.1,0"/>
	<polygon class="st0" points="0,39.7 34,39.7 34,34 5.7,34 5.7,22.7 30,22.7 30,17 5.7,17 5.7,5.7 34,5.7 34,0 0,0 	"/>
</g>
</svg>
